PathFileType	4	(X/Y/Z)	s03c0303.trc
DataRate	CameraRate	NumFrames	NumMarkers	Units	OrigDataRate	OrigDataStartFrame	OrigNumFrames
200	200	6	50	mm	200	250	2000
Frame#	Time	racr			lacr			c7			jug			rlel			rdr			llel			ldr			s2			lic			ric			lasi			rasi			rpsi			lpsi			rgt			lgt			rth1			rth2			rth3			rth4			rlfc			rmfc			rsh1			rsh2			rsh3			rsh4			rlmal			rcal			rtoe			rmt5			rmt1			lth1			lth2			lth4			lth3			llfc			lmfc			lsh1			lsh2			lsh3			lsh4			llmal			lcal			ltoe			lmt1			lmt5			SBIKE			LBIKE			RBIKE			
		X1	Y1	Z1	X2	Y2	Z2	X3	Y3	Z3	X4	Y4	Z4	X5	Y5	Z5	X6	Y6	Z6	X7	Y7	Z7	X8	Y8	Z8	X9	Y9	Z9	X10	Y10	Z10	X11	Y11	Z11	X12	Y12	Z12	X13	Y13	Z13	X14	Y14	Z14	X15	Y15	Z15	X16	Y16	Z16	X17	Y17	Z17	X18	Y18	Z18	X19	Y19	Z19	X20	Y20	Z20	X21	Y21	Z21	X22	Y22	Z22	X23	Y23	Z23	X24	Y24	Z24	X25	Y25	Z25	X26	Y26	Z26	X27	Y27	Z27	X28	Y28	Z28	X29	Y29	Z29	X30	Y30	Z30	X31	Y31	Z31	X32	Y32	Z32	X33	Y33	Z33	X34	Y34	Z34	X35	Y35	Z35	X36	Y36	Z36	X37	Y37	Z37	X38	Y38	Z38	X39	Y39	Z39	X40	Y40	Z40	X41	Y41	Z41	X42	Y42	Z42	X43	Y43	Z43	X44	Y44	Z44	X45	Y45	Z45	X46	Y46	Z46	X47	Y47	Z47	X48	Y48	Z48	X49	Y49	Z49	X50	Y50	Z50	
250	1.2500	534.622231	1479.071968	-96.313394	541.682774	1456.221613	-409.369857	456.458516	1551.737681	-254.830775	499.168052	1386.467606	-245.700932	547.711423	1196.530655	-16.485304	738.400895	969.558000	-51.755759	577.420979	1176.865920	-472.401374	738.525334	923.216455	-429.630287	-55.288803	1257.489073	-263.632341	131.617785	1261.883294	-440.941961	114.757232	1274.517018	-75.972982	141.894111	1183.642404	-399.274959	144.452238	1202.830577	-126.317635	-24.072339	1308.315912	-220.557444	-14.487945	1299.458365	-300.455363	59.463138	1193.719900	-62.102808	60.590353	1151.507260	-460.147930	161.710151	1066.000455	-41.614345	243.612436	1031.792352	-42.519873	298.556823	965.601627	-50.244994	265.350268	1060.473381	-52.440547	385.742036	869.075444	-76.637163	392.611614	856.593406	-199.411831	347.919175	705.509130	-51.008867	348.681477	617.024479	-65.125836	305.544327	540.198213	-65.404397	377.367424	612.192588	-91.069129	260.882487	415.890633	-81.800738	201.262846	356.866276	-119.881000	509.911384	402.444243	-116.386787	393.012017	370.190012	-47.094082	416.847241	389.194771	-162.383949	143.669334	1025.300446	-486.621891	210.559637	970.300513	-494.935375	240.426536	990.944570	-488.217858	241.710919	886.636420	-493.897077	320.982244	780.525123	-483.149636	325.580014	770.976426	-356.852951	206.139399	647.852868	-488.205704	175.380811	573.831313	-460.843047	104.165662	519.312424	-444.375227	203.063793	558.829690	-437.237304	21.484069	427.981916	-412.599922	-52.341154	423.809960	-360.574189	199.619584	243.435460	-356.088420	122.940196	297.063020	-319.425425	88.587515	291.144550	-430.833913	-265.701016	925.112137	-245.309176	-14.837166	80.441468	-437.474475	-14.642633	80.474694	-37.047295	
251	1.2550	536.188503	1479.703974	-95.742915	543.539234	1456.647315	-409.066641	458.370397	1552.505123	-254.597584	501.097852	1387.192622	-245.398021	548.330890	1196.915626	-16.035787	738.581313	969.647218	-51.765542	578.621682	1177.376395	-472.545458	738.678446	923.092911	-429.592284	-53.011938	1257.758829	-263.791501	133.892644	1262.353435	-441.029733	116.765572	1274.877587	-76.039129	144.173116	1184.073084	-399.288594	146.731901	1202.975983	-126.409018	-21.868393	1308.585618	-220.723138	-12.286767	1299.818757	-300.700957	61.527278	1193.730897	-62.289498	62.911666	1152.134454	-460.367758	163.223611	1065.294515	-41.819058	244.917666	1030.558062	-42.681312	299.502544	964.205371	-50.286243	266.972565	1059.308173	-52.305532	386.184061	867.229682	-76.660403	392.290768	854.074595	-198.598504	348.251378	703.620162	-50.897941	349.099616	615.119947	-64.967959	306.006647	538.257284	-65.256919	377.775216	610.340208	-90.891895	261.442755	413.871082	-81.681778	201.794180	354.965996	-119.768971	510.560061	400.000723	-116.419226	395.250284	368.866348	-46.000272	417.464582	386.965939	-162.330580	146.237588	1026.333997	-486.984674	213.224115	971.493067	-495.344315	243.038889	992.171999	-488.522032	244.496481	887.961247	-494.774959	323.762409	781.666077	-484.079111	328.328562	771.963700	-357.616990	208.172489	649.560444	-488.731301	177.018351	575.626567	-461.231425	105.561058	521.559996	-444.655616	204.688288	560.467880	-437.636162	22.507707	430.729792	-412.661060	-51.259331	427.225181	-360.554741	199.233430	244.615190	-356.133921	122.945527	299.012475	-319.544070	88.615294	293.469399	-431.211422	-265.746935	925.102444	-245.260685	-14.831632	80.458125	-437.469319	-14.647041	80.469464	-37.052790	
252	1.2600	537.797428	1480.253369	-95.153008	545.438290	1457.055805	-408.700585	460.312983	1553.235126	-254.296863	503.129393	1387.897401	-245.060294	548.846602	1197.234534	-15.636244	738.765438	969.727183	-51.764460	579.850224	1177.941923	-472.673858	738.932146	922.966276	-429.629858	-50.617999	1258.117804	-264.078014	136.180725	1262.822835	-441.087395	118.770723	1275.216598	-76.020619	146.532001	1184.575412	-399.397173	148.803695	1203.382667	-126.086934	-19.649356	1308.785061	-220.819691	-10.069886	1300.134400	-300.892970	63.638519	1193.747781	-62.519746	65.350923	1152.845619	-460.636303	164.868255	1064.729405	-41.856375	246.301575	1029.517242	-42.624910	300.512240	962.795985	-50.257897	268.535809	1058.044109	-52.199167	386.614819	865.342173	-76.667792	392.830257	852.109121	-198.483566	348.582862	701.685686	-50.807568	349.514482	613.222292	-64.820471	306.453009	536.279738	-65.116730	378.176304	608.364532	-90.754551	261.901211	411.707515	-81.563360	202.260135	353.030030	-119.689472	511.119492	397.599818	-116.626273	392.767228	365.644928	-47.107130	418.008961	384.662138	-162.240232	148.835956	1027.387198	-487.426334	215.927492	972.694307	-495.821408	245.694892	993.423251	-488.878373	247.375726	889.200030	-495.525516	326.524739	782.812927	-484.839325	331.157096	772.992256	-358.417442	210.286673	651.255076	-489.249747	178.803161	577.564149	-461.761604	107.050650	523.882776	-444.918634	206.446884	562.243029	-438.270613	23.623801	433.548320	-412.737300	-50.077426	430.682434	-360.573303	198.697543	245.825835	-356.142098	123.005998	300.974065	-319.663937	88.561430	295.626907	-431.249738	-265.609852	925.077031	-245.067704	-14.835505	80.465438	-437.457992	-14.642173	80.461503	-37.070800	
253	1.2650	539.481090	1480.839917	-94.510367	547.424347	1457.500952	-408.361399	462.266421	1553.985084	-253.957518	505.126062	1388.718810	-244.621740	549.510877	1197.637846	-15.198442	738.909790	969.807130	-51.757769	581.174933	1178.419129	-472.716646	739.214822	922.837523	-429.696278	-48.277870	1258.401497	-264.281540	138.515586	1263.354454	-441.228064	120.803247	1275.548016	-76.021068	148.913109	1185.066269	-399.505305	150.803469	1203.739137	-125.817356	-17.342789	1309.047928	-220.985681	-7.778113	1300.411791	-301.168984	65.795456	1193.688154	-62.715018	67.753980	1153.464398	-460.823724	166.495582	1064.080063	-41.925436	247.764612	1028.265351	-42.601284	301.439696	961.262390	-50.237715	270.105220	1056.713431	-52.088190	387.061254	863.408671	-76.687303	393.270621	849.822070	-197.998038	349.177981	699.645400	-50.886292	349.918744	611.243000	-64.692976	306.925164	534.296655	-64.974413	378.585480	606.384172	-90.623118	262.451771	409.657997	-81.432449	202.782570	351.060900	-119.534549	511.703299	395.000856	-116.688120	393.324812	363.396111	-47.017896	418.542273	382.471817	-162.140113	151.477000	1028.445091	-487.923751	218.717164	973.935239	-496.303927	248.438534	994.685018	-489.224917	250.303058	890.526522	-496.291478	329.472810	784.105752	-485.719712	334.046466	774.151405	-359.251928	212.459723	653.053209	-489.817005	180.607844	579.459652	-462.185393	108.606293	526.182117	-445.205411	208.244284	564.079974	-438.744652	24.761969	436.401337	-412.852242	-48.790300	434.226697	-360.626552	198.246847	246.833144	-356.128396	123.091238	302.917505	-319.771225	88.533528	297.762316	-431.229741	-265.651570	925.095752	-245.085428	-14.829998	80.462589	-437.466265	-14.628828	80.463807	-37.050303	
254	1.2700	541.136541	1481.506291	-93.837498	549.337274	1457.894073	-407.962657	464.266177	1554.705714	-253.543637	507.127830	1389.513531	-244.208619	550.092257	1198.074869	-14.883622	739.090381	969.892038	-51.795842	582.535527	1178.901149	-472.799522	739.547566	922.663399	-429.804841	-45.919987	1258.603002	-264.473895	140.911835	1263.904244	-441.245597	122.826722	1275.771470	-75.996920	151.344237	1185.568815	-399.570318	152.898900	1204.103676	-125.624456	-15.167623	1309.195963	-221.037418	-5.738029	1300.808855	-302.896973	67.993671	1193.638375	-62.931214	70.294279	1154.112976	-461.119193	168.163207	1063.417995	-41.982807	249.160450	1027.093665	-42.592600	302.458996	959.661984	-50.230257	271.749363	1055.426735	-51.972405	387.526932	861.428853	-76.713443	393.836292	847.893470	-197.685948	349.520675	697.628993	-50.790731	350.346828	609.231203	-64.530567	307.407131	532.264970	-64.810881	379.096242	604.434689	-90.437592	263.031212	407.573362	-81.284892	203.314873	349.123753	-119.312917	512.328535	392.342503	-116.738728	393.766513	361.054284	-46.919871	419.150917	380.225194	-162.102266	154.185326	1029.517700	-488.318576	221.555383	975.183550	-496.795036	251.220418	995.969521	-489.520279	253.304251	891.784591	-497.065708	332.456240	785.324376	-486.535115	337.028724	775.169486	-360.104209	214.702285	654.807201	-490.393598	182.537141	581.459304	-462.614022	110.285091	528.575731	-445.511245	210.075855	565.769363	-439.191637	26.009608	439.337577	-412.951300	-47.437314	437.822033	-360.669738	197.793642	248.142374	-356.093719	123.255255	304.968058	-319.957144	88.539840	300.005108	-431.316716	-265.618104	925.077535	-244.971589	-14.834126	80.469120	-437.470068	-14.628135	80.470512	-37.041580	
255	1.2750	542.861973	1482.175274	-93.158770	551.412051	1458.296121	-407.546124	466.265368	1555.431647	-253.138731	509.161147	1390.259045	-243.750201	550.787954	1198.526443	-14.549923	739.296686	970.007837	-51.833103	583.869665	1179.373941	-472.891867	739.865269	922.475227	-429.875399	-43.470670	1258.732105	-264.558301	143.395083	1264.408130	-441.279498	124.948505	1276.031928	-76.002116	153.837349	1186.093251	-399.692893	154.998297	1204.402641	-125.465817	-12.861965	1309.356496	-221.161453	-3.416884	1301.218198	-303.377470	70.209285	1193.539816	-63.109726	72.770091	1154.779719	-461.307836	169.838789	1062.728077	-42.042440	250.609366	1025.842955	-42.558445	303.493844	958.106135	-50.261875	273.388988	1054.076587	-51.775151	388.008746	859.418548	-76.712281	394.450649	845.980517	-197.527830	349.930647	695.598098	-50.682437	350.820942	607.192767	-64.387403	307.909802	530.201783	-64.640494	379.571295	602.390760	-90.255266	263.577156	405.463301	-81.106488	203.779946	347.130397	-119.114227	512.923906	389.703493	-116.727288	394.507541	358.463833	-46.896029	419.753015	378.250384	-161.818444	156.941201	1030.624477	-488.824404	224.447128	976.477352	-497.244412	254.022035	997.248782	-489.861903	256.330367	893.103869	-497.825356	335.511164	786.639953	-487.401731	340.105384	776.236730	-360.960589	217.046380	656.648717	-490.962552	184.537911	583.527101	-463.179896	111.988596	530.981096	-445.836475	212.038406	567.726392	-439.857972	27.283893	442.281614	-413.095453	-46.050034	441.496372	-360.788331	197.293551	249.530555	-356.233123	123.371480	306.919090	-320.096651	88.529663	302.342259	-431.337297	-265.668970	925.105105	-245.075801	-14.819487	80.496428	-437.456070	-14.636300	80.473386	-37.048725	
